<svg xmlns="http://www.w3.org/2000/svg" width="880" height="220" viewBox="0 0 880 220" role="img" aria-labelledby="title">
<title id="title">Cowboy neon wordmark</title>
<defs>
 <filter id="halo" x="-40%" y="-70%" width="180%" height="240%" color-interpolation-filters="sRGB"><feGaussianBlur stdDeviation="10"/></filter>
 <filter id="glow" x="-20%" y="-40%" width="140%" height="180%" color-interpolation-filters="sRGB"><feGaussianBlur stdDeviation="3.5"/></filter>
 <g id="art" fill="none" stroke-linecap="round" stroke-linejoin="round"><g transform="translate(22 25)"><path d="M 121,46 C 88,10 18,20 18,82 C 18,146 88,154 121,121"/>
<path d="M 212,24 C 171,24 145,48 145,84 C 145,122 172,146 212,146 C 252,146 279,122 279,84 C 279,48 252,24 212,24 Z"/>
<path d="M 298,26 L 329,145 L 369,57 L 410,145 L 443,26"/>
<path d="M 470,145 L 470,26 L 514,26 C 559,26 561,80 516,84 L 470,84 M 516,84 C 569,84 569,145 515,145 L 470,145"/>
<path d="M 646,24 C 605,24 579,48 579,84 C 579,122 606,146 646,146 C 686,146 713,122 713,84 C 713,48 686,24 646,24 Z"/>
<path d="M 733,26 L 774,85 L 816,26 M 774,85 L 774,145"/></g></g>
</defs>
<!-- True vector paths; transparent canvas. Remove the first two uses for a flat outline. -->
<use href="#art" stroke="#ff5900" stroke-width="20" opacity=".42" filter="url(#halo)"/>
<use href="#art" stroke="#ff6500" stroke-width="12" opacity=".85" filter="url(#glow)"/>
<use href="#art" stroke="#ff740f" stroke-width="10"/>
<use href="#art" stroke="#ffb54c" stroke-width="6"/>
<use href="#art" stroke="#fff3ca" stroke-width="2.5"/>
</svg>